<?xml version="1.0" standalone="no"?>
<!DOCTYPE svg PUBLIC "-//W3C//DTD SVG 20010904//EN"
 "http://www.w3.org/TR/2001/REC-SVG-20010904/DTD/svg10.dtd">
<svg version="1.0" xmlns="http://www.w3.org/2000/svg"
 width="128.000000pt" height="128.000000pt" viewBox="0 0 128.000000 128.000000"
 preserveAspectRatio="xMidYMid meet">

<g transform="translate(0.000000,128.000000) scale(0.100000,-0.100000)"
fill="#000000" stroke="none">
<path d="M635 1035 c-59 -58 5 -151 85 -124 35 13 50 35 50 77 0 65 -87 96
-135 47z m97 -12 c39 -35 7 -98 -48 -91 -18 2 -34 13 -43 29 -13 24 -13 29 2
53 20 30 61 35 89 9z"/>
<path d="M800 808 c-108 -208 -117 -228 -103 -228 4 0 26 34 48 75 24 43 50
79 65 87 14 7 27 14 31 15 3 2 20 -17 39 -42 18 -25 39 -45 44 -45 6 0 24 18
40 40 17 22 33 40 38 40 4 0 8 5 8 10 0 22 -30 8 -57 -26 l-29 -36 -38 46
c-32 39 -40 44 -57 36 -10 -6 -19 -8 -19 -4 0 4 23 49 51 101 l51 95 70 -131
c38 -72 73 -129 78 -126 10 6 -132 288 -147 292 -4 2 -55 -88 -113 -199z"/>
<path d="M424 758 c-73 -142 -92 -193 -53 -148 l21 25 18 -23 c24 -29 30 -28
66 15 l30 36 31 -23 c17 -12 36 -19 42 -16 15 10 14 26 -3 26 -7 0 -25 10 -40
21 l-27 22 -38 -37 c-37 -36 -38 -36 -55 -17 -16 18 -15 23 31 115 26 53 50
96 53 96 3 0 49 -85 103 -190 92 -178 117 -218 117 -189 0 17 -210 419 -219
419 -5 0 -39 -60 -77 -132z"/>
<path d="M1015 676 c-14 -14 -35 -26 -47 -28 -12 -2 -29 -15 -38 -30 -13 -25
-13 -31 0 -55 15 -27 18 -28 114 -31 81 -2 102 0 117 14 25 22 24 46 -2 70
-12 10 -25 29 -30 42 -8 22 -45 42 -75 42 -8 0 -26 -11 -39 -24z m69 -6 c14
-5 26 -16 26 -24 0 -9 12 -26 27 -40 22 -21 24 -27 14 -40 -10 -12 -34 -16
-102 -16 -77 0 -90 2 -99 19 -14 27 -3 50 29 58 14 3 36 17 48 30 25 27 24 26
57 13z"/>
<path d="M176 577 c-17 -19 -44 -37 -59 -41 -36 -9 -60 -46 -51 -80 12 -49 36
-56 187 -56 133 0 139 1 162 25 32 31 31 48 -2 83 -16 16 -33 37 -38 47 -6 9
-24 18 -41 19 -17 2 -42 10 -55 19 -36 26 -68 21 -103 -16z m97 -7 c14 -11 39
-20 56 -20 24 0 32 -5 37 -25 3 -13 15 -27 26 -31 14 -4 18 -13 16 -32 l-3
-27 -155 0 -155 0 -3 32 c-4 39 25 60 58 43 11 -6 20 -9 21 -8 0 2 2 14 3 27
3 25 39 61 61 61 7 0 24 -9 38 -20z"/>
<path d="M1160 514 c0 -20 49 -104 61 -104 14 0 12 6 -22 65 -33 58 -39 65
-39 39z"/>
<path d="M770 455 c-7 -8 -21 -15 -30 -15 -28 0 -50 -11 -50 -24 0 -6 -9 -19
-20 -29 -24 -20 -26 -50 -4 -71 12 -13 39 -16 130 -16 101 0 116 2 134 20 34
34 18 89 -28 93 -12 0 -22 4 -22 7 0 4 -9 16 -20 28 -24 25 -72 29 -90 7z m72
-22 c10 -9 18 -24 18 -35 0 -15 5 -17 26 -12 17 4 29 2 35 -7 12 -19 11 -25
-7 -43 -23 -23 -216 -23 -235 0 -11 14 -10 19 7 33 11 9 23 24 27 34 3 9 17
17 30 17 14 0 30 7 37 15 16 20 39 19 62 -2z"/>
<path d="M220 371 c-6 -13 -6 -22 -1 -26 9 -5 31 24 31 39 0 14 -20 4 -30 -13z"/>
</g>
</svg>
