<?xml version="1.0" standalone="no"?>
<!DOCTYPE svg PUBLIC "-//W3C//DTD SVG 20010904//EN"
 "http://www.w3.org/TR/2001/REC-SVG-20010904/DTD/svg10.dtd">
<svg version="1.0" xmlns="http://www.w3.org/2000/svg"
 width="700.000000pt" height="700.000000pt" viewBox="0 0 700.000000 700.000000"
 preserveAspectRatio="xMidYMid meet">
<metadata>
Created by potrace 1.14, written by Peter Selinger 2001-2017
</metadata>
<g transform="translate(0.000000,700.000000) scale(0.100000,-0.100000)"
fill="#000000" stroke="none">
<path d="M3669 5776 c-146 -41 -288 -186 -314 -321 -25 -134 15 -263 117 -367
136 -140 343 -170 528 -78 148 74 220 219 208 416 -14 210 -198 366 -428 363
-36 0 -86 -7 -111 -13z m237 -120 c191 -88 246 -291 122 -449 -79 -100 -227
-138 -357 -91 -104 37 -215 181 -214 279 0 50 41 132 94 190 91 99 233 127
355 71z"/>
<path d="M4970 5483 c-59 -74 -330 -557 -563 -1003 -200 -382 -249 -478 -407
-793 -200 -400 -230 -474 -210 -507 4 -7 15 -10 23 -7 14 5 90 108 122 165 9
15 25 43 37 62 11 19 34 60 51 90 16 30 33 60 37 65 4 6 22 37 40 70 33 61
158 256 169 265 3 3 18 21 33 41 53 72 111 118 203 164 74 36 98 44 113 36 23
-12 106 -107 197 -226 86 -111 148 -179 199 -216 32 -24 42 -27 60 -17 34 18
116 105 218 233 104 131 161 189 195 199 44 14 46 98 3 109 -40 10 -123 -37
-206 -118 -17 -16 -73 -82 -124 -145 -51 -63 -96 -119 -100 -123 -4 -5 -72 70
-151 165 -259 311 -277 323 -409 259 -40 -20 -62 -21 -67 -5 -5 16 179 374
455 884 25 47 57 106 71 133 14 26 28 44 32 40 4 -5 22 -37 42 -73 19 -36 64
-119 99 -185 36 -66 91 -169 123 -230 205 -390 349 -644 447 -790 105 -156
123 -152 59 15 -91 234 -419 896 -613 1235 -72 125 -144 235 -153 235 -2 0
-13 -12 -25 -27z"/>
<path d="M2676 4785 c-31 -47 -56 -86 -56 -88 0 -2 -22 -42 -48 -88 -67 -117
-106 -187 -170 -309 -30 -58 -58 -109 -62 -115 -11 -14 -251 -495 -288 -575
-118 -259 -151 -360 -119 -360 14 0 83 69 167 169 l46 53 57 -75 c82 -107 139
-157 178 -157 53 0 99 42 269 245 50 61 98 116 105 124 11 12 29 2 117 -61
121 -88 192 -126 251 -134 37 -5 45 -3 71 24 31 33 37 75 15 97 -8 7 -31 16
-53 19 -57 9 -163 68 -263 148 -48 39 -93 74 -99 79 -6 5 -43 -23 -95 -74
-312 -301 -313 -302 -373 -261 -45 31 -95 103 -100 145 -7 64 29 150 214 519
172 343 238 467 278 519 l19 23 45 -78 c73 -125 138 -243 138 -248 0 -3 13
-27 28 -53 32 -54 162 -303 377 -718 48 -93 102 -197 120 -230 18 -33 56 -105
85 -160 60 -115 107 -201 162 -298 21 -38 38 -71 38 -74 0 -2 13 -24 30 -48
17 -24 30 -46 30 -50 0 -11 80 -124 102 -145 26 -24 40 -22 44 7 6 35 -57 173
-276 608 -193 382 -245 484 -355 690 -23 44 -68 130 -100 190 -85 160 -252
470 -295 545 -21 36 -52 92 -70 125 -30 56 -98 155 -105 155 -2 0 -28 -38 -59
-85z"/>
<path d="M5692 3803 c-28 -14 -84 -56 -124 -91 -97 -87 -178 -138 -258 -162
-109 -33 -187 -99 -241 -206 -40 -81 -44 -133 -13 -204 42 -95 88 -155 136
-178 41 -20 59 -24 168 -36 142 -16 706 -25 800 -12 127 17 205 64 257 154 21
36 28 59 27 102 0 71 -19 105 -109 200 -76 80 -128 154 -162 230 -49 110 -215
211 -370 224 -49 5 -66 1 -111 -21z m194 -123 c127 -49 171 -88 188 -165 10
-45 52 -103 145 -202 46 -48 90 -102 98 -121 12 -30 12 -36 -8 -71 -50 -89
-158 -109 -599 -109 -421 1 -471 12 -521 115 -29 61 -31 146 -4 188 38 58 75
83 186 120 88 30 167 81 248 162 132 130 139 133 267 83z"/>
<path d="M1170 3308 c-69 -29 -117 -65 -213 -158 -92 -89 -239 -195 -285 -206
-58 -13 -169 -75 -209 -115 -23 -23 -56 -69 -74 -103 -30 -55 -33 -69 -33
-146 0 -62 6 -101 22 -144 43 -117 110 -172 251 -205 76 -18 124 -23 316 -37
86 -6 916 -5 1000 1 103 8 200 30 241 56 46 28 168 160 190 206 35 73 16 166
-53 248 -21 25 -138 155 -178 199 -6 6 -28 36 -49 66 -84 118 -133 149 -266
169 -131 20 -232 58 -335 123 -107 69 -229 86 -325 46z m192 -109 c24 -12 76
-44 117 -71 121 -83 208 -113 342 -122 116 -7 147 -31 183 -142 22 -68 76
-129 146 -164 81 -41 92 -74 75 -230 -5 -41 -8 -78 -7 -82 1 -5 -380 -8 -847
-8 l-850 0 -7 46 c-3 25 -7 89 -8 142 -1 83 2 104 23 145 52 107 169 134 305
70 77 -37 106 -41 106 -15 1 44 13 130 22 162 29 96 138 218 239 269 67 33 95
33 161 0z"/>
<path d="M6347 2864 c-9 -50 4 -107 45 -197 77 -168 221 -392 269 -417 26 -15
59 -3 59 20 0 31 -35 102 -143 293 -182 319 -217 365 -230 301z"/>
<path d="M4343 2560 c-54 -11 -89 -30 -138 -76 -55 -50 -108 -72 -194 -79
-127 -10 -223 -59 -236 -122 -11 -49 -28 -75 -102 -154 -84 -91 -103 -123
-110 -194 -9 -86 33 -176 105 -225 79 -55 189 -65 707 -65 540 0 602 8 695 92
71 64 113 154 113 241 0 85 -30 158 -85 208 -49 44 -88 61 -159 69 -93 11
-115 22 -139 67 -32 61 -105 143 -158 176 -88 56 -205 80 -299 62z m173 -132
c95 -44 179 -158 188 -253 7 -76 17 -81 135 -65 132 17 170 7 206 -54 47 -81
43 -120 -22 -192 -32 -35 -72 -58 -123 -70 -19 -4 -37 -8 -40 -9 -3 -1 -27 -5
-55 -10 -27 -4 -59 -9 -70 -11 -46 -9 -251 -18 -400 -18 -244 0 -387 13 -514
45 -81 21 -115 45 -138 97 -18 42 -15 47 99 162 46 47 94 105 107 130 41 80
78 105 172 115 90 10 143 33 205 87 32 28 72 57 89 63 39 17 104 10 161 -17z"/>
<path d="M1305 2126 c-66 -30 -125 -119 -125 -190 0 -49 25 -61 68 -34 36 22
111 130 114 162 0 11 2 28 3 36 1 16 -13 40 -24 40 -3 -1 -19 -7 -36 -14z"/>
</g>
</svg>
